<?xml version="1.0" standalone="no"?>
<!DOCTYPE svg PUBLIC "-//W3C//DTD SVG 1.1//EN" "http://www.w3.org/Graphics/SVG/1.1/DTD/svg11.dtd">
<svg xmlns="http://www.w3.org/2000/svg">
<metadata>Copyright (C) 2020 by original authors @ fontello.com</metadata>
<defs>
<font id="fontello" horiz-adv-x="1000" >
<font-face font-family="fontello" font-weight="400" font-stretch="normal" units-per-em="1000" ascent="850" descent="-150" />
<missing-glyph horiz-adv-x="1000" />
<glyph glyph-name="abacus" unicode="&#xe800;" d="M934-62h-56v154c0 8-7 14-15 14s-15-6-15-14v-154h-29v883h29v-660c0-8 7-15 15-15s15 7 15 15v674c0 8-7 15-15 15h-59c-8 0-15-7-15-15v-109h-73v11c0 26-22 48-48 48-13 0-25-5-34-14-8 9-20 14-33 14s-25-5-34-14c-9 9-20 14-33 14-27 0-49-22-49-48v-11h-274v109c0 8-7 15-15 15h-59c-8 0-15-7-15-15v-258c0-8 7-15 15-15s15 7 15 15v244h30v-883h-30v570c0 8-7 15-15 15s-15-7-15-15v-570h-56c-8 0-15-6-15-14v-59c0-8 7-15 15-15h868c8 0 15 7 15 15v59c0 8-7 14-15 14z m-285 165c0 11 8 19 19 19s19-8 19-19v-51c0-10-9-19-19-19s-19 9-19 19z m19 49c-13 0-25-6-34-14-8 8-20 14-33 14s-25-6-34-14c-9 8-20 14-33 14-27 0-49-22-49-49v-11h-274v182h73v-11c0-26 22-48 48-48 13 0 25 5 34 14 9-9 20-14 33-14s25 5 34 14c9-9 20-14 34-14 26 0 48 22 48 48v11h37v-11c0-26 22-48 49-48 13 0 25 5 33 14 9-9 21-14 34-14 26 0 48 22 48 48v11h73v-182h-73v11c0 27-22 49-48 49z m-86-49c0 11 8 19 19 19s19-8 19-19v-51c0-10-9-19-19-19s-19 9-19 19z m-67 0c0 11 8 19 19 19s18-8 18-19v-51c0-10-8-19-18-19s-19 9-19 19z m-164 371c0-10-8-19-19-19s-19 9-19 19v52c0 10 9 19 19 19s19-9 19-19z m-19-48c27 0 49 22 49 48v11h37v-11c0-26 22-48 49-48 13 0 24 5 33 14 9-9 21-14 34-14s24 5 33 14c9-9 21-14 34-14 13 0 25 5 33 14 9-9 21-14 34-14 26 0 48 22 48 48v11h73v-181h-73v11c0 26-22 48-48 48-13 0-25-5-34-14-8 9-20 14-33 14-27 0-49-22-49-48v-11h-37v11c0 26-22 48-48 48-14 0-25-5-34-14-9 9-21 14-34 14-13 0-24-5-33-14-9 9-21 14-34 14-26 0-48-22-48-48v-11h-73v181h73v-11c0-26 22-48 48-48z m153 48c0-10-8-19-18-19s-19 9-19 19v52c0 10 8 19 19 19s18-9 18-19z m67 0c0-10-8-19-18-19s-19 9-19 19v52c0 10 8 19 19 19s18-9 18-19z m68 0c0-10-9-19-19-19s-19 9-19 19v52c0 10 8 19 19 19s19-9 19-19z m67 0c0-10-9-19-19-19s-19 9-19 19v52c0 10 8 19 19 19s19-9 19-19z m-38-159c0 10 8 18 19 18s19-8 19-18v-52c0-10-9-19-19-19s-19 9-19 19z m-67 0c0 10 8 18 19 18s19-8 19-18v-52c0-10-9-19-19-19s-19 9-19 19z m-134 0c0 10 8 18 19 18s18-8 18-18v-52c0-10-8-19-18-19s-19 9-19 19z m-67 0c0 10 8 18 18 18s19-8 19-18v-52c0-10-8-19-19-19s-18 9-18 19z m-68 0c0 10 9 18 19 18s19-8 19-18v-52c0-10-8-19-19-19s-19 9-19 19z m355 441c10 0 19-9 19-19v-52c0-10-9-18-19-18s-19 8-19 18v52c0 10 8 19 19 19z m-67 0c10 0 19-9 19-19v-52c0-10-9-18-19-18s-19 8-19 18v52c0 10 8 19 19 19z m-86-19c0 10 8 19 19 19s18-9 18-19v-52c0-10-8-18-18-18s-19 8-19 18z m-30-41v-11c0-26 22-48 49-48 13 0 24 5 33 14 9-9 21-14 34-14 13 0 25 5 33 14 9-9 21-14 34-14 26 0 48 22 48 48v11h73v-181h-73v11c0 26-22 48-48 48-13 0-25-5-34-14-8 9-20 14-33 14s-25-5-34-14c-9 9-20 14-33 14s-25-5-34-14c-9 9-20 14-33 14-27 0-49-22-49-48v-11h-37v11c0 26-22 48-49 48s-48-22-48-48v-11h-73v181z m-274-633h274v-11c0-26 22-48 49-48 13 0 24 5 33 14 9-9 21-14 34-14 13 0 25 5 33 14 9-9 21-14 34-14 26 0 48 22 48 48v11h73v-125h-578z m708-184h-838v30h838z" horiz-adv-x="1000" />

<glyph glyph-name="chess-1" unicode="&#xe801;" d="M919 63l-14 42a16 16 0 0 1-8 9 62 62 0 0 1 9 33v16a16 16 0 0 1-3 9l0 0a220 220 0 0 0-44 131v33a63 63 0 0 1 47 61v141a16 16 0 0 1-15 15h-63a16 16 0 0 1-13-7l-18-27-18 27a16 16 0 0 1-13 7h-63a16 16 0 0 1-15-15v-141a63 63 0 0 1 46-61v-33a220 220 0 0 0-43-131l0 0a16 16 0 0 1-3-9v-16a62 62 0 0 1 9-33 16 16 0 0 1-9-9l-14-42c0 0-1-1-1-1a121 121 0 0 1-17 15v39a16 16 0 0 1-15 15h-25a143 143 0 0 0-38 98v137h16a16 16 0 0 1 15 15v16a63 63 0 0 1-28 52l43 114a16 16 0 0 1-15 21h-23l-42 57a16 16 0 0 1-13 6h-15v31h31v31h-31v32h-32v-32h-31v-31h31v-31h-15a16 16 0 0 1-13-6l-42-57h-23a16 16 0 0 1-15-21l43-114a63 63 0 0 1-28-52v-16a16 16 0 0 1 15-15h16v-137a143 143 0 0 0-38-98h-25a16 16 0 0 1-15-15v-39a121 121 0 0 1-16-15c-1 0-2 1-2 1l-13 40v310a125 125 0 0 1-125 125h-125a16 16 0 0 1-16-16v-31a16 16 0 0 1 5-11l42-43v-134a16 16 0 0 1 15-15h32a16 16 0 0 1 9 3l53 42v-23l-38-39a240 240 0 0 1-71-168l-13-40a121 121 0 0 1-50-98v-6a16 16 0 0 1 16-15h906a16 16 0 0 1 16 15v6a121 121 0 0 1-50 98z m-200 84h156a31 31 0 0 0-31-31h-94a31 31 0 0 0-31 31z m38 375l27-40a16 16 0 0 1 26 0l27 40h38v-94h-156v94z m-38-125h156a31 31 0 0 0-31-31h-94a31 31 0 0 0-31 31z m47-94v31h62v-31a252 252 0 0 1 34-125h-130a252 252 0 0 1 34 125z m-344 94a31 31 0 0 0 31 31h94a31 31 0 0 0 31-31z m55 219h46l24-32h-94z m-29-157l-35 94h174l-35-94z m5-230v137h94v-137a174 174 0 0 1 29-98h-152a174 174 0 0 1 29 98z m-318 90h-10v125a16 16 0 0 1-5 11l-42 42v9h110a94 94 0 0 0 93-93v-140l-47 38v86a63 63 0 0 1-62 62v-31a31 31 0 0 0 31-31v-24z m52-70l33 33 61-49v-117h-155a209 209 0 0 0 61 133z m-85-209a16 16 0 0 1 7 8l12 36h165l12-36a16 16 0 0 1 6-8c2-1 4-3 6-4a121 121 0 0 1-13-55v-6h-234a89 89 0 0 0 39 65z m226-65v6a90 90 0 0 0 40 75 16 16 0 0 1 7 13v31h250v-31a16 16 0 0 1 7-13 90 90 0 0 0 40-75v-6z m375 0v6a121 121 0 0 1-13 55c2 1 4 3 6 4a16 16 0 0 1 6 8l12 36h165l12-36a16 16 0 0 1 7-8 89 89 0 0 0 39-65z" horiz-adv-x="1000" />

<glyph glyph-name="process" unicode="&#xe802;" d="M566-150h-132c-22 0-39 17-39 39v58c-37 10-72 24-105 44l-41-42c-16-15-40-15-56 0l-93 94c-16 16-16 40 0 56l41 41c-19 33-34 68-44 105h-58c-21 0-39 17-39 39v132c0 22 18 40 39 40h58c10 36 24 71 44 104l-41 41c-16 16-16 40 0 56l93 94c16 15 40 15 56 0l41-41c33 19 68 34 105 43v58c0 22 17 39 39 39h132c22 0 40-17 40-39v-58c36-9 72-24 105-43l40 41c16 15 40 15 56 0l94-94c15-16 15-40 0-56l-41-40c19-33 34-69 43-105h58c22 0 39-18 39-40v-132c0-22-17-39-39-39h-58c-9-37-24-72-43-105l41-41c15-16 15-40 0-56l-94-94c-16-15-40-15-56 0l-41 42c-33-20-68-34-104-44v-58c0-22-18-39-40-39z m-279 185c4 0 7-1 11-3 37-24 77-41 120-50 9-2 16-10 16-19v-74h132v74c0 9 7 17 16 19 43 9 84 26 121 50 7 5 18 4 24-3l52-52 94 94-52 52c-6 6-7 17-3 24 24 37 41 78 51 121 2 9 10 16 19 16h73v132h-73c-9 0-17 7-19 16-10 43-27 84-50 121-5 8-4 18 2 24l52 52-94 94-52-52c-6-6-16-7-24-2-37 23-78 40-121 50-9 2-16 10-16 19v73h-132v-73c0-9-7-17-16-19-43-10-84-27-121-51-7-4-18-3-24 3l-52 52-94-94 52-52c7-6 8-17 3-24-24-37-41-78-50-121-2-9-10-16-19-16h-74v-132h74c9 0 17-7 19-16 9-43 26-83 50-120 5-8 4-18-3-25l-52-52 94-94 52 52c4 4 9 6 14 6z m0 0m213 30c-73 0-146 28-202 83-111 112-111 293 0 404 45 45 102 73 165 81 61 8 123-4 176-34 10-5 13-17 8-27-5-9-17-12-27-7-95 53-216 37-294-41-96-96-96-252 0-348 48-48 111-72 174-72 63 0 126 24 174 72 75 75 94 189 46 284-5 10-1 21 9 26 10 5 21 1 26-9 55-109 34-242-53-329-56-55-129-83-202-83z m0 0m192 449c-5 0-10 2-14 6-3 3-5 8-5 14 0 5 2 10 5 13 4 4 9 6 14 6 5 0 10-2 14-6 4-3 6-8 6-13 0-6-2-11-6-14-4-4-9-6-14-6z m0 0m-220-308c-5 0-10 2-13 6l-124 123c-7 8-7 20 0 28l70 70c4 4 9 6 14 6s10-2 14-6l39-40 95 95c8 8 20 8 28 0l70-70c8-7 8-20 0-27l-179-179c-3-4-8-6-14-6z m-95 143l95-96 152 151-43 43-95-95c-3-4-8-6-14-6-5 0-10 2-13 6l-40 40z m0 0" horiz-adv-x="1000" />

<glyph glyph-name="house" unicode="&#xe810;" d="M989 229c-19 28-57 35-85 17l-128-86 0 266 44-42c10-8 22-13 35-13 0 0 0 0 0 0 14 0 27 6 37 16 9 10 14 23 14 36-1 14-6 26-16 35l-84 79c-6 6-15 5-21 0-5-6-5-15 1-21l84-78c4-4 7-10 7-16 0-6-2-11-6-16-4-4-10-7-16-7 0 0 0 0 0 0-6 0-11 2-15 6 0 0 0 0 0 0l-334 313c-5 5-14 5-19 0l-333-314c-5-4-10-6-16-6-6 1-11 3-16 7-4 5-6 10-6 16 1 6 3 12 7 16l358 337c9 8 22 8 30 0l210-196c6-6 15-6 20 0 5 6 5 15-1 20l-209 196c-20 19-50 19-69 0l-115-108 0 20c0 6-2 11-7 16-4 4-10 6-16 6 0 0 0 0 0 0l-82 0c-6 0-11-2-16-6-4-5-6-10-6-16l0-139-116-110c-10-9-16-21-16-35 0-14 4-26 14-36 9-10 22-16 35-16 1 0 1 0 2 0 13 0 25 5 34 14l45 41 0-125c-15 2-29 3-44 3h-24v8c0 29-23 53-52 53h-46c-29 0-52-24-52-53v-223c0-8 6-15 14-15s15 7 15 15v223c0 13 10 24 23 24h46c13 0 23-11 23-24v-22-293-23c0-13-10-23-23-23h-46c-13 0-23 10-23 23v25c0 8-7 15-15 15s-14-7-14-15v-25c0-28 23-52 52-52h46c29 0 52 24 52 52v2l209-79c0 0 1 0 1 0 9-3 18-4 27-4 5 0 10 0 15 1l307 44c0 0 0 0 0 0 26 4 51 16 71 32 1 0 1 1 1 1l198 178c23 21 28 56 10 81z m-671 471l1-40-71-66 0 106 70 0z m178-12l251-235 1-312-41-27-42 2-1 12c-4 40-34 72-73 80l0 185c0 14-12 26-26 26 0 0 0 0 0 0l-136 0c-7 0-14-3-18-8-5-5-8-11-8-18l0-162c-27 6-52 17-77 31-3 1-6 3-9 5-1 0-2 1-3 2-2 1-4 2-6 3-1 0-3 1-4 2-2 0-4 1-5 2-2 1-3 1-5 2-2 1-3 1-5 2-1 1-3 1-5 2-1 1-3 1-4 2-2 0-4 1-5 2-2 0-4 1-5 1-2 1-3 1-5 2-2 0-4 1-5 2-2 0-3 0-5 1-2 0-4 1-6 1-1 1-2 1-3 1l0 158 250 236z m66-477l-119 14-11 1 0 164 130 0 0-179z m398-41l-198-179c-16-13-36-22-57-25l-307-45c0 0 0 0-1 0l0 0c-9-1-19-1-29 2l-218 83v268h24c21 0 42-2 62-7 1 0 1 0 2 0 3-1 5-1 8-2 0 0 0 0 0 0 3-1 5-2 8-2 0-1 0-1 1-1 2-1 5-1 8-2 0 0 0-1 0-1 6-1 11-4 16-6 1 0 1 0 1 0 3-1 5-2 8-3 0 0 0-1 0-1 3-1 5-2 8-3 0 0 0 0 0-1 3-1 5-2 8-3 0 0 0-1 1-1 2-1 5-3 7-4 34-20 71-33 110-38 0 0 0 0 0 0l160-19c1 0 2 0 3 0 23-5 42-22 48-45 1-3 2-6 2-10l1-6-300 26c-8 1-15-5-15-13-1-8 5-15 13-16l316-27c1 0 1 0 1 0 0 0 0 0 0 0l60-4c0 0 0 0 0 0 1 0 1 0 1 0 1 0 1 0 1 0 1 0 1 1 2 1 0 0 0 0 0 0 1 0 1 0 2 0 0 0 0 0 0 1 1 0 2 0 2 1l51 34c0 0 0 0 0 0l150 100c15 10 36 6 46-9 9-14 7-32-6-43z" horiz-adv-x="1000" />

<glyph glyph-name="lunch" unicode="&#xe811;" d="M952 850c-27 0-49-22-49-48v-113c0-9-7-16-16-16-9 0-16 7-16 16v113c0 26-22 48-48 48s-49-22-49-48v-113c0-9-7-16-16-16-9 0-16 7-16 16v113c0 26-22 48-48 48s-49-22-49-48v-194c0-66 50-120 113-128v-194h32v225h-16c-53 0-97 44-97 97v194c0 9 8 16 17 16 8 0 16-7 16-16v-113c0-27 21-49 48-49s49 22 49 49v113c0 9 7 16 16 16 9 0 16-7 16-16v-113c0-27 21-49 48-49s49 22 49 49v113c0 9 7 16 16 16 9 0 16-7 16-16v-194c0-53-44-97-97-97h-16v-371h32v340c64 8 113 62 113 128v194c0 26-22 48-48 48z m-81-871h-742c-27 0-48-22-48-48v-33c0-26 21-48 48-48h742c27 0 48 22 48 48v33c0 26-21 48-48 48z m16-81c0-9-7-16-16-16h-742c-9 0-16 7-16 16v33c0 8 7 16 16 16h742c9 0 16-8 16-16v-33z m-548 517v-102c-123-46-210-164-210-302h32c0 160 131 291 291 291h96c161 0 291-131 291-291h32c0 138-87 256-210 302v102c0 26-21 48-48 48h-226c-27 0-48-22-48-48z m226-82c-6 0-11 1-17 1h-96c-6 0-11-1-16-1v33h129v-33z m-194 82c0 8 7 16 16 16h226c9 0 16-8 16-16v-92c-10 3-21 5-32 7v68h-194v-68c-11-2-21-4-32-7v92z m-177-404h32c0 10 1 21 2 30l-32 5c-2-12-2-23-2-35z m212 222l-6 31c-94-19-172-91-197-184l31-8c22 81 90 144 172 161z m-293-93h32v341l-13 2c-67 12-100 53-100 125 0 85 46 210 145 210s146-125 146-210c0-72-33-113-100-125l-13-2v-195h32v168c74 19 113 71 113 154 0 101-55 242-178 242s-177-141-177-242c0-83 39-135 113-154v-314z" horiz-adv-x="1000" />

<glyph glyph-name="man" unicode="&#xe812;" d="M822 40c-8 0-14-7-14-15v-138c0-4-4-8-8-8h-79v289c0 8-7 14-15 14-8 0-14-6-14-14v-289h-159l46 51c5 5 7 13 6 21 0 0 0 0 0 0l-43 259 11 18c7-5 12-9 21-9 10 0 19 5 23 14v0l46 93 106-41c3-2 59-27 59-92v-99c0-9 6-15 14-15 9 0 15 6 15 15v99c0 86-74 118-77 119 0 0 0 0-1 0l-175 68v41c28 22 47 54 52 90 14 1 27 6 38 15 13 12 21 29 21 48 0 15-5 29-15 40v55c0 100-81 181-182 181-100 0-181-81-181-181v-56c-10-11-15-25-15-39 0-19 8-36 21-48 11-9 24-14 38-15 5-37 24-70 55-92v-39l-175-68c0 0-1 0-1 0-3-1-77-33-77-119v-306c0-20 17-37 37-37h140c8 0 15 7 15 15 0 8-7 14-15 14h-32v289c0 8-6 14-14 14-8 0-15-6-15-14v-289h-79c-4 0-8 4-8 8v306c0 66 56 90 59 92l106 41 46-93c4-9 13-14 23-14 9 0 14 4 21 9l11-18-43-259c0 0 0 0 0 0-1-8 1-16 6-21l46-51h-59c-8 0-14-6-14-14s6-15 14-15h392c20 0 37 17 37 37v138c0 8-6 15-15 15z m-206 296l-43-86c-1 1-24 17-52 37 12 15-2-3 53 65l42-16z m-87-91l-11-17h-36l-11 17 29 21 29-21z m-84 130v28c18-8 37-11 55-11 19 0 38 4 55 12v-29l-55-68-55 68z m221 199c0-10-4-19-12-25-4-4-10-7-16-8v65c16-2 28-16 28-32z m-307-33c-17 3-28 17-28 33 0 15 13 28 28 32v-65z m1 94c-4 0-10-1-14-3v37c0 83 69 152 152 152 84 0 153-69 153-152v-36c-5 2-9 2-13 3 0 14 0 11-47 61-8 9-22 11-33 4-51-33-113-50-171-46-12 1-24-7-27-20z m29-106v92 5c63-4 129 15 183 49 21-23 33-35 36-39 0-12 0-93 0-107 0-59-48-108-108-108-67 0-111 52-111 108z m38-279l-43 86 42 16 53-65c-27-20-49-35-52-37z m17-302l42 251h28l42-251-56-62-56 62z" horiz-adv-x="1000" />

<glyph glyph-name="paper" unicode="&#xe814;" d="M992 724c-1 0-118 112-118 112-5 5-9 9-18 9h-473c-14 0-25-11-25-25v-77l-167-28c-13-3-22-15-20-29l9-49c-54-18-110-37-164-56-12-5-19-19-15-32l107-297c2-6 8-10 14-10 2 0 3 1 5 1 8 3 12 11 9 19l-105 293c50 18 103 35 154 53l50-294 58-338c2-12 13-20 24-20 2 0 3 0 5 0l156 27 123 21-184-66-146-53-113 315c-2 7-11 11-18 8-8-2-12-11-9-18l114-319c4-10 13-16 23-16 3 0 6 0 9 1l150 54 340 122 64 12h144c14 0 25 11 25 25v638c0 9-5 14-8 17z m-39-4h-73l-2 0c-4 0-12 0-14 2 0 1-1 2-1 5l0 79z m18-647h-584v285c0 8-6 15-14 15s-15-7-15-15v-289c0-14 11-25 25-25h275l-185-32-152-26-57 333-63 368 157 26v-287c0-8 7-14 15-14s14 6 14 14v390h447l0-89c0-10 3-19 9-25 10-10 24-11 33-11 1 0 1 0 2 0l93 0z m-513 545c0-8 6-15 15-15h418c8 0 15 7 15 15s-7 14-15 14h-418c-9 0-15-6-15-14z m433-90h-418c-9 0-15-6-15-14s6-15 15-15h418c8 0 15 7 15 15s-7 14-15 14z m0-104h-418c-9 0-15-6-15-14s6-15 15-15h418c8 0 15 7 15 15s-7 14-15 14z m0-104h-418c-9 0-15-6-15-14s6-15 15-15h418c8 0 15 6 15 15s-7 14-15 14z m0-104h-418c-9 0-15-6-15-15s6-14 15-14h418c8 0 15 6 15 14s-7 15-15 15z" horiz-adv-x="1000" />

<glyph glyph-name="school-bus" unicode="&#xe815;" d="M882 664a46 46 0 0 1-46-46v-116a46 46 0 0 1 21-38l-44-54v284c0 57-47 105-105 105h-418c-58 0-104-48-104-105v-283l-44 52a46 46 0 0 1 22 39v116a46 46 0 1 1-92 0v-116a46 46 0 0 1 39-45l57-69c-39-15-66-52-66-96v-224a60 60 0 0 1 56-59v-76c0-34 27-64 59-64h23c32 0 59 30 59 64v75h402v-75c0-34 27-64 59-64h23c32 0 59 30 59 64v76a59 59 0 0 1 55 59v76a14 14 0 0 1 0 3v145a102 102 0 0 1-67 97l57 68a46 46 0 0 1 41 45v116a46 46 0 0 1-46 46z m-542-286c6 43 47 78 90 78h140c43 0 84-35 90-78l31-225h-382z m344 17c-14 51-62 88-114 88h-140c-52 0-100-37-114-88h-103v273h572v-273z m-394 377h418c42 0 76-35 77-76h-572c1 41 35 76 77 76z m-190-270v116a19 19 0 1 0 37 0v-116a19 19 0 1 0-37 0z m29-210c0 42 35 76 79 76h103l-30-215h-152z m143-359c0-19-15-36-32-36h-23c-17 0-31 17-31 36v75h86z m511-36h-23c-17 0-31 17-31 36v75h86v-75c0-19-15-36-32-36z m55 139h-677a33 33 0 0 0-32 32v57h740v-57a32 32 0 0 0-31-32z m31 256v-139h-150l-30 215h103c43 0 77-33 77-76z m31 210a19 19 0 1 0-37 0v116a19 19 0 1 0 37 0z m-507-150h214a14 14 0 0 1 0 27h-214a14 14 0 0 1 0-27z m0-76h214a14 14 0 0 1 0 27h-214a14 14 0 0 1 0-27z m0-76h214a14 14 0 0 1 0 27h-214a14 14 0 0 1 0-27z m-181 104a58 58 0 1 1 58-58 58 58 0 0 1-58 58z m0-88a30 30 0 1 0 30 30 30 30 0 0 0-30-30z m519 30a58 58 0 1 1 57 58 58 58 0 0 1-57-58z m87 0a30 30 0 1 0-30 31 30 30 0 0 0 30-31z" horiz-adv-x="1000" />

<glyph glyph-name="student" unicode="&#xe817;" d="M378 284c-8 0-15-7-15-15v-23c0-9 7-15 15-15s15 6 15 15v23c0 8-7 15-15 15z m244-53c8 0 15 6 15 15v23c0 8-7 15-15 15s-15-7-15-15v-23c0-9 7-15 15-15z m-101 26c-5-6-13-10-21-10s-16 4-21 10c-5 6-15 7-21 1-6-5-6-14-1-20 11-13 26-20 43-20s32 7 43 20c6 6 5 15-1 20-6 6-16 5-21-1z m304 109c0 6-22 83-83 149v66l78 33c47 21 47 88 0 108l-280 120c-12 5-26 8-40 8s-27-3-40-8l-151-65c-7-3-11-11-7-19 3-7 11-11 19-8l150 65c9 4 19 6 29 6s20-2 29-6l279-120c24-10 24-44 0-54l-279-119c-18-8-39-8-58 0l-279 119c-24 10-24 44 0 54l75 32c7 4 11 12 8 20-4 7-12 11-20 7l-75-32c-45-19-47-82-5-105v-28c-22-7-39-27-39-52 0-30 24-54 54-54s53 24 53 54c0 25-16 45-39 52v15l54-23 0-66c-57-62-83-139-83-149-25-15-41-42-41-72 0-23 10-45 26-60 8-137 74-261 175-327-1-6-1-13-1-19v-23c0-8 7-15 15-15h302c9 0 15 7 15 15v23c0 6 0 13-1 19 20 13 38 28 56 45 5 6 5 15-1 21-5 6-15 6-20 0-13-13-27-25-42-35-5 17-13 33-23 47 1 14-6 28-18 36 85 36 145 108 169 190 8 1 16 2 23 5-7-74-32-143-73-200-5-6-3-16 3-20 7-5 16-4 21 3 48 67 75 148 80 235 16 15 26 37 26 60 0 28-14 57-41 72z m-611 171c0-13-11-24-24-24s-25 11-25 24 11 25 25 25 24-11 24-25z m74 31l172-73c25-11 54-12 80 0l172 73v-51c-128-71-289-76-424 0z m-12-77c60-34 127-53 196-57-56-72-143-120-240-125 1 17 3 34 7 50 1 5 0 9-2 13-5 5-10 5-14 5-4 0-9 0-14 0 15 42 38 81 67 114z m-113-197c0 27 20 49 44 53-3-17-5-35-5-53v0 0s0 0 0 0c0-17 2-35 5-52-25 4-44 26-44 52z m179-356c-84 59-140 162-151 278 7-3 15-4 23-5 24-82 84-154 169-190-12-8-19-22-18-36-10-14-18-30-23-47z m21-59v9c0 8 1 16 2 24 3 15 8 30 16 44l51-46c0-12 6-23 14-31z m176 38v-6c0-5-3-9-7-11l-32-19-32 19c-4 2-6 6-6 11v6c0 4-2 8-5 11l-59 52c-6 5-4 15 4 17l14 5c13-37 42-66 79-79 3-1 7-1 10 0 37 13 66 42 79 79l15-5c7-2 9-12 3-17l-58-52c-4-3-5-7-5-11z m-91 84c34-6 69-6 104 0-11-22-29-39-52-49-23 10-41 27-52 49z m171-45c8-14 13-29 16-44 1-8 2-16 2-24v-9h-83c9 8 14 19 14 31z m-119 70c-143 0-261 112-268 254 109 5 207 59 268 142 61-82 159-137 268-142-7-143-125-254-268-254z m278 351c-10 0-17-9-15-18 4-16 5-33 6-50-98 5-185 53-241 125 69 4 136 23 196 57 30-33 53-72 68-114-5 0-9 0-14 0z m15-135c3 17 5 35 5 52v0s0 0 0 0 0 0 0 0c0 17 0 34-2 52 28-7 41-30 41-52 0-26-19-48-44-52z" horiz-adv-x="1000" />

<glyph glyph-name="chess" unicode="&#xe81a;" d="M622-2h-12v21c0 38-29 69-66 73l-14 173c-1 8-8 14-16 14-9-1-15-8-14-16l14-170h-351l31 384h289l12-146c0-7 7-13 14-13 1 0 1 0 1 0 9 0 15 8 14 16l-12 143c19 1 34 16 34 35v55c0 14-9 27-21 32l64 64c3 3 4 7 4 11v161c0 8-6 15-15 15h-102c-8 0-15-7-15-15v-107h-47v107c0 8-6 15-15 15h-122c-8 0-15-7-15-15v-107h-47v107c0 8-6 15-15 15h-100c-9 0-15-7-15-15v-161c0-4 1-8 4-11l64-64c-12-5-21-18-21-32v-55c0-18 14-33 32-35l-31-385c-37-4-66-35-66-73v-21h-13c-30 0-54-24-54-54v-40c0-30 24-54 54-54h57c8 0 14 7 14 15 0 8-6 15-14 15h-57c-13 0-24 11-24 24v40c0 13 11 24 24 24h568c14 0 25-11 25-24v-40c0-13-11-24-25-24h-442c-9 0-15-7-15-15 0-8 6-15 15-15h442c30 0 55 24 55 54v40c0 30-25 54-55 54z m-460 514v55c0 3 2 5 4 5h83c8 0 15 7 15 15s-7 15-15 15h-57l-78 78v140h72v-107c0-8 6-15 14-15h77c8 0 15 7 15 15v107h93v-107c0-8 6-15 14-15h77c8 0 15 7 15 15v107h73v-140l-78-78h-168c-9 0-15-7-15-15s6-15 15-15h194c2 0 5-2 5-5v-55c0-3-3-5-5-5h-346c-2 0-4 2-4 5z m-65-514v21c0 24 20 44 44 44h395c24 0 44-20 44-44v-21z m0 0" horiz-adv-x="1000" />

<glyph glyph-name="instagram" unicode="&#xe81b;" d="M685 671h-370c-75 0-135-61-135-136v-370c0-75 60-135 135-135h370c75 0 136 60 136 135v370c0 75-61 136-136 136z m103-506c0-57-46-103-103-103h-370c-57 0-103 46-103 103v370c0 57 46 103 103 103h370c57 0 103-46 103-103l0-370 0 0z m-288 354c-93 0-169-76-169-169s76-169 169-169 169 76 169 169-76 169-169 169z m0-305c-75 0-136 61-136 136s61 136 136 136 136-61 136-136-61-136-136-136z" horiz-adv-x="1000" />

<glyph glyph-name="facebook" unicode="&#xe81c;" d="M626 330h-89v-326h-136v326h-64v115h64v75c0 53 26 136 137 136l100 0v-112h-73c-12 0-28-6-28-31v-68h101l-12-115z" horiz-adv-x="1000" />

<glyph glyph-name="smartphone" unicode="&#xe81d;" d="M697 850h-394c-39 0-72-32-72-72v-856c0-40 33-72 72-72h394c40 0 72 32 72 72v856c0 40-32 72-72 72z m-245-43h96c4 0 7-2 7-6 0-3-3-6-7-6h-96c-4 0-7 3-7 6 0 4 3 6 7 6z m-96 16c5 0 10-5 10-11 0-5-5-10-10-10s-10 5-10 10c0 6 4 11 10 11z m-46 6c9 0 16-8 16-17 0-8-7-16-16-16s-16 8-16 16c0 9 7 17 16 17z m215-942h-50c-16 0-29 12-29 28 0 16 13 29 29 29h50c16 0 29-13 29-29 0-16-13-28-29-28z m213 80h-476v766h476v-766z" horiz-adv-x="1000" />

<glyph glyph-name="interface" unicode="&#xe81e;" d="M917 725h-834c-46 0-83-37-83-83v-584c0-46 37-83 83-83h834c46 0 83 37 83 83v584c0 46-37 83-83 83z m-834-42h834c3 0 5-1 8-1-72-66-311-285-395-361-6-6-17-13-30-13s-24 7-30 13c-84 76-323 295-395 361 3 0 5 1 8 1z m-41-625v584c0 4 1 8 2 11 55-50 222-203 330-301-107-93-274-251-330-304-1 3-2 7-2 10z m875-41h-834c-3 0-6 1-9 2 58 54 226 214 332 304 13-12 26-24 36-33 17-15 37-23 58-23s41 8 58 23c10 9 23 21 37 33 106-90 274-250 331-304-3-1-6-2-9-2z m41 41c0-3-1-7-2-10-55 53-222 211-330 304 108 98 275 251 330 301 1-3 2-7 2-11v-584z" horiz-adv-x="1000" />

<glyph glyph-name="people" unicode="&#xe81f;" d="M883 126v311c0 70-30 132-78 176v139c0 54-44 98-98 98h-217c-11 0-19-9-19-19s8-20 19-20h217c32 0 59-26 59-59v-110c-36 21-77 33-121 33-76 0-143-35-187-90-10 21-31 35-56 35-34 0-62-28-62-63s28-62 62-62c4 0 8 0 12 1-5-19-8-39-8-59v-134h-156c-11 0-19-9-19-19v-67l-81 80c-3 4-8 6-13 6h-39c-33 0-59 26-59 59v390c0 33 26 59 59 59h217c10 0 19 9 19 20s-9 19-19 19h-217c-54 0-98-44-98-98v-390c0-54 44-98 98-98h30l108-108c4-3 9-5 14-5 3 0 5 0 8 1 7 3 12 10 12 18v94h136v-138c-71-53-117-137-117-231v-26c0-10 9-19 20-19h672c10 0 19 9 19 19v26c0 94-46 178-117 231z m-504 431c0 13 10 24 23 24s24-11 24-24-11-23-24-23-23 10-23 23z m66-120c0 110 90 199 200 199s199-89 199-199v-287c-34 17-72 28-111 31v44c43 29 72 78 72 134v88c0 10-9 19-19 19h-61c13 18 22 40 22 64 0 11-9 19-20 19s-19-8-19-19c0-35-29-64-64-64h-140c-10 0-19-9-19-19v-88c0-56 28-105 72-133v-45c-40-3-78-14-112-31z m275-303v-96l-48 48z m-103-48l-48-48v96z m149 341v-68c0-67-54-121-121-121s-121 54-121 121v68z m-121-228c17 0 33 3 48 8v-37l-48-49-49 49v37c15-5 32-8 49-8z m316-310h-83v83c0 11-9 19-20 19s-19-8-19-19v-83h-389v83c0 11-8 19-19 19s-20-8-20-19v-83h-83v6c0 121 87 221 202 243v-111c0-14 8-26 21-32 4-1 9-2 13-2 9 0 18 3 25 10l56 56 56-56c6-7 15-10 24-10 4 0 9 1 13 2 13 6 21 18 21 32v111c115-22 202-122 202-243z m-317 395c15 0 28 5 38 15 8 8 8 20 0 28-7 8-20 8-27 0-3-3-7-4-11-4s-7 1-10 4c-8 8-20 8-28 0-7-8-7-20 0-28 10-10 24-15 38-15z m-477 273c0-34 28-62 62-62s63 28 63 62-28 63-63 63-62-28-62-63z m86 0c0-13-11-23-24-23s-23 10-23 23 11 24 23 24 24-11 24-24z m149 254c6 0 11 2 14 6 4 3 6 8 6 14s-2 10-6 13-8 6-14 6-10-2-13-6c-4-3-6-8-6-13s2-11 6-14c3-4 8-6 13-6z" horiz-adv-x="1000" />

<glyph glyph-name="telephone" unicode="&#xe820;" d="M454 88c-8-8-8-20 0-28 8-8 20-8 28 0 7 8 7 20 0 28-8 7-20 7-28 0z m0 0m501 34l-148 126c-1 0-2 1-2 1-39 25-89 20-122-13l-81-81c-5-5-14-7-21-4-91 38-166 95-223 169-43 57-59 102-61 108 0 1 0 3-1 4-3 7-1 16 4 21l81 81c33 33 38 83 13 122 0 0 0 0 0 0l-107 149c-34 53-107 60-151 16l-17-16c0 0 0 0 0 0l-57-58c-69-69-81-172-33-299 41-109 122-228 230-335 110-110 232-194 344-235 111-40 229-45 313 38l54 55c44 44 37 117-15 151z m-173 95l149-126c0-1 1-1 2-2 31-20 36-64 10-91l-4-4-253 190 25 24c19 20 48 23 71 9z m-528 567c0 0 1-1 1-1l107-149c14-23 11-53-8-72l-24-24-171 251 4 5c27 26 71 21 91-10z m363-869c-107 39-225 119-331 225-103 104-182 218-220 322-30 77-49 185 23 258l42 41 171-251-29-29c-17-17-22-41-14-62 6-26 35-78 63-117 43-57 119-135 244-187 22-9 47-4 64 13l28 28 253-189-23-23c-77-78-190-59-271-29z m0 0m-200 219c-20 18-56 50-75 69-46 47-94 105-123 146-6 9-18 11-27 5-9-6-11-18-5-27 36-52 90-113 127-151 20-21 56-52 78-71 8-7 20-6 27 2 7 8 7 20-2 27z m0 0" horiz-adv-x="1000" />

<glyph glyph-name="placeholder" unicode="&#xe821;" d="M500 850c-184 0-333-149-333-333 0-55 14-110 40-159l275-497c3-7 10-11 18-11s15 4 18 11l275 497c27 49 40 104 40 159 0 184-149 333-333 333z m257-472l-257-464-257 464c-23 43-35 90-35 139 0 161 131 291 292 291s292-130 292-291c0-49-12-96-35-139z m-257 305c-92 0-167-74-167-166 0-92 75-167 167-167s167 75 167 167c0 92-75 166-167 166z m0-291c-69 0-125 56-125 125 0 69 56 125 125 125s125-56 125-125c0-69-56-125-125-125z" horiz-adv-x="1000" />

<glyph glyph-name="music" unicode="&#xe822;" d="M101 462v-213l-62-63c-28-28-37-71-21-109 15-37 52-61 92-61h0l75 0v-109c0-32 26-58 58-58 33 0 59 26 59 58v114c20 10 33 31 33 53 0 23-13 43-33 53v181l92 49c14 8 24 21 26 37 3 16-3 32-14 43l-90 89c-15 15-36 24-58 24h-89c-9 0-17 4-23 10l-45 44v13c-1 25 1 49 5 73 5 19 11 38 20 55 2 4 5 9 7 13 11 14 17 31 18 49-3 24-24 43-49 43h0c-22 0-43-15-60-41-12-20-21-42-27-65-11-46-16-93-14-140 0-26 11-52 29-71z m142-580c-14 0-25 11-25 25v109h50v-109c0-14-11-25-25-25z m51 174c-3-3-7-5-12-6-2-1-4-1-5-1h-75l-92 0h0c-27 0-51 16-61 41-11 25-5 54 14 73l67 67c1 2 3 3 3 5 1 2 1 4 2 6 0 0 0 0 0 1v7h133v-116h-50v54c0 10-6 19-15 23-10 4-20 2-28-5l-62-63c-7-7-10-18-6-27 4-10 13-16 24-16h146c1 0 3 0 5 0 9-2 16-9 19-18 2-9 0-18-7-25z m-13 317l18-28-22-12c0 0-1 0-1-1l-5-2c-8-4-18-1-23 7-1 2-1 5-1 8 0 2 0 4 1 5 1 4 4 8 8 9z m-96-240h-34l34 34z m37 384l-20-35-21 35z m-100 19c5-4 10-8 15-11 0 0 0 0 0 0l43-72c5-7 13-12 22-12 8 0 16 5 21 12l38 63c12 0 23-5 32-14l90-89c3-3 5-9 4-14 0-5-4-10-8-12l-51-27-17 29 18 9c4 2 7 7 8 12 1 6-1 11-4 15l-36 35c-2 2-4 3-6 4-5 2-11 1-15-2-5-3-8-8-8-13v-45l-28-15c-16-9-26-26-27-44 0-9 2-17 6-24 10-18 29-28 49-26v-12h-133v186c0 5-2 9-5 12l-76 76c-12 13-20 30-19 47-2 44 2 88 12 130 2 5 3 10 4 14l33-16c-4-11-7-23-10-34-5-27-7-54-6-81v-14c0-8 3-16 9-22z m-20 281h0c8 0 14-6 15-13-1-11-5-20-12-28-3-5-5-9-7-13l-34 16c2 4 4 8 6 12 11 16 23 26 32 26z m0 0m16-158c0-51 41-92 92-92 51 0 92 41 92 92 0 50-41 91-92 91-51 0-92-41-92-91z m92 58c32 0 58-26 58-58 0-33-26-59-58-59-32 0-59 26-59 59 0 32 27 58 59 58z m0 0m451-167c11 0 22 2 32 6 44 17 68 63 57 108-11 45-54 75-100 69-46-5-81-45-81-91 0-11 2-21 5-31 13-36 48-61 87-61z m0 150c28 0 52-20 57-48 5-27-10-55-37-65-6-2-13-4-20-4-25 0-47 16-55 39-3 7-4 13-4 20 0 15 6 30 17 41 11 11 26 17 42 17z m0 0m-239-508c-7-7-11-16-11-26 1-10 6-19 13-25l16-12c0-1 1-1 2-2 3-2 7-4 10-6v-214c0-32 26-58 58-58 33 0 59 26 59 58v177c12-1 24-2 36-2 39 1 77 6 113 15l112-192c11-21 34-32 58-29 23 3 43 20 49 43 4 15 2 31-6 44l-100 173c3 2 7 4 9 5 10 4 17 13 19 24 2 10-1 21-8 28l-70 78c11-2 22-1 32 5 15 7 25 22 26 38l11 92c4 29-12 57-38 69l-117 54c-15 7-31 8-47 3l-56-16c-3-1-7 0-10 2-4 2-6 5-6 9l-45 249c-4 24-25 42-50 43-1 0-4-1-7-1-27-4-46-30-42-57l48-276c2-13 5-27 9-40l25-89c11-40-1-82-32-109z m114-285c0-14-12-25-26-25-13 0-25 11-25 25v198c6-2 11-4 16-6h0l1 0h0c4-2 8-3 12-4 7-2 14-4 22-6z m368 20c-2-9-10-17-20-18-10-1-20 3-25 12l-107 186c16 5 32 10 48 17l102-178c3-6 4-12 2-19z m-439 839c-1 9 5 17 13 19 5 1 10 0 13-3s7-7 7-12l45-248c2-14 9-25 21-32 11-8 25-10 37-6l56 16c8 3 17 2 24-1l117-54c13-6 21-20 19-35l-11-92c0-5-4-10-8-13-5-2-11-2-16 0-7 4-10 11-9 18l3 23 5 44c2 15-6 28-19 34l-59 28c-7 3-15 3-22-1-25 13-54 14-79 1-26 11-55 11-81 2l0 0c-4 12-6 25-9 37z m265-438l-24 86 42-20-5-44-3-23c0 0 0 0 0-1h0c0-3 0-6 0-10z m-184 37l-16 56c19 8 41 8 60 0 8-4 18-3 27 1 17 9 37 7 52-2l30-105c0 0 0 0 0-1 0 0 0-1 1-1 0-2 1-3 2-4 0 0 0 0 0-1l124-137c-7-3-15-7-26-11-25-11-51-20-78-27-64-20-133-23-199-6-3 1-7 2-11 3-18 6-35 14-51 25l-16 12 60 55c40 36 56 91 41 143z m0 0" horiz-adv-x="1000" />

<glyph glyph-name="man-1" unicode="&#xe823;" d="M241 488l-63-47a16 16 0 0 1 0-25l63-47 18 25-45 34 45 35z m143-119l63 47a16 16 0 0 1 0 25l-63 47-18-25 46-35-46-34z m491-54l-125 17v49a156 156 0 0 1 62 110h1a63 63 0 0 1 30 117 63 63 0 0 1-15 115 70 70 0 0 1-70 65 70 70 0 0 1-34-9 78 78 0 0 1-136 0 70 70 0 0 1-33 9 70 70 0 0 1-70-65 63 63 0 0 1-45-76h-346a63 63 0 0 1-63-63v-359a63 63 0 0 1 63-62h166l-21-63h-20a47 47 0 0 1-47-47 47 47 0 0 1 47-47h125v-47a78 78 0 0 1 78-78s49 0 50 1l184 38 185-38c1-1 50-1 50-1a78 78 0 0 1 78 78v247a110 110 0 0 1-94 109z m-281 48a156 156 0 0 1 125 0v-41c-12-31-40-43-63-43s-50 12-62 43z m187 143a125 125 0 0 0-250 0v6a63 63 0 0 1 108 26h35a63 63 0 0 1 107-26v-6z m-312 47a31 31 0 0 0 31 31v-62a31 31 0 0 0-31 31z m265 63a63 63 0 0 1-60-47h-35a62 62 0 0 1-95 37l4 11a60 60 0 0 1 15-1 63 63 0 0 1 53 30 63 63 0 0 1 81 0 63 63 0 0 1 53-30 60 60 0 0 1 14 1l4-11a62 62 0 0 1-34 10z m32-63a31 31 0 1 0-32 31 31 31 0 0 0 32-31z m-157 0a31 31 0 1 0-31 31 31 31 0 0 0 31-31z m204-31v62a31 31 0 0 0 0-62z m-314 172c1 0 1 0 2 0a16 16 0 0 1 15 18l0 0a38 38 0 0 0 0 5 39 39 0 0 0 39 39 39 39 0 0 0 29-13 16 16 0 0 1 26 7 47 47 0 0 0 92 0 16 16 0 0 1 27-7 39 39 0 0 0 29 13 39 39 0 0 0 39-39 38 38 0 0 0-1-5l0 0a16 16 0 0 1 4-13 15 15 0 0 1 12-5c0 0 1 0 1 0a31 31 0 0 0 0-63c-2 0-17 1-20 0l-4 12a16 16 0 0 1-23 8 31 31 0 0 0-16-4 31 31 0 0 0-31 31 16 16 0 0 1-21 15l-3-1a16 16 0 0 1-10-9 31 31 0 0 0-58 0 16 16 0 0 1-9 9l-4 1a16 16 0 0 1-20-15 31 31 0 0 0-31-31 31 31 0 0 0-16 4 16 16 0 0 1-23-8l-4-12c-4 1-18 0-20 0a31 31 0 0 0-1 63z m-436-110a31 31 0 0 0 31 32h365a63 63 0 0 1 11-8 63 63 0 0 1 30-117h1a156 156 0 0 1 62-110v-50l-133-28a109 109 0 0 1-55-31h-312z m0-359v16h290a108 108 0 0 1-9-45v-2h-250a31 31 0 0 0-31 31z m230-62h51v-63h-72z m-90-110a15 15 0 0 0 5 11c0 0 0 0 0 0a15 15 0 0 0 11 5h125v-31h-125a16 16 0 0 0-16 15z m264-141h-45a47 47 0 0 0-47 47v16h58l43-29a16 16 0 0 1 8-2h61l35-8z m471 47a47 47 0 0 0-47-47h-46l-295 63a16 16 0 0 1-3 0h-58l-43 29a16 16 0 0 1-8 2h-63v78h59l107-45a16 16 0 0 1 5-1l392-31z m0 80l-141 11 53 22 28 12h60z m0 77h-63a16 16 0 0 1-6-2l-10-4v53h-31v-66l-66-28-105-9-106 9-67 28v66h-31v-53l-9 4a16 16 0 0 1-6 2h-63v80a79 79 0 0 0 62 77l132 28a99 99 0 0 1 175 1l4-1v0l122-17a79 79 0 0 0 68-78z m-296 359h-33v-31h33c22 0 42 0 62 2l-2 31c-19-1-39-2-60-2z" horiz-adv-x="1000" />

<glyph glyph-name="ball" unicode="&#xe824;" d="M854 704c-95 94-220 146-354 146s-259-52-354-146c-94-95-146-220-146-354s52-259 146-354c95-94 220-146 354-146s259 52 354 146c94 95 146 220 146 354s-52 259-146 354z m-443 108c29 5 59 8 89 8 91 0 177-26 249-71-141 4-229-45-280-92-13 6-30 11-55 9-5 52-6 101-3 146z m74-205c11-16 14-36 8-56-5-20-19-39-38-51-16-11-33-16-51-16-25 0-47 11-59 30-11 15-14 35-8 55 5 21 19 39 38 52 16 10 33 16 51 16 25 0 47-11 59-30z m-104 198c-3-45-1-94 4-146-9-4-18-8-26-14-12-7-22-17-31-28-53 19-127 34-202 18 63 82 152 143 255 170z m-264-727c0 103 18 196 53 269 3 7 0 16-7 19-8 4-17 1-20-7-32-66-50-146-55-236-37 67-58 145-58 227 0 90 25 175 70 247 77 27 156 13 213-6-2-5-4-9-5-14-4-14-5-28-3-41-27-15-52-34-75-56-6-5-6-15-1-21 7-7 18-3 21 0 20 18 41 34 64 48 2-4 4-7 6-10 12-18 29-31 50-37-29-126-47-353 104-580-147 9-277 85-357 198z m393-198c-158 224-139 451-111 574 2 0 42 0 72 21 22 14 38 34 47 57 139-28 251-88 333-180 61-67 86-131 94-155-63-181-233-313-435-317z m363 492c-39 44-87 82-140 113-61 35-131 60-208 76 2 22-3 44-15 62-4 7-9 12-15 18 53 46 147 92 300 75 107-86 175-218 175-366 0-37-4-72-12-106-15 33-41 80-85 128z m-657 73c-7 5-16 4-21-3-11-12-20-26-29-40-4-7-2-16 5-21 10-6 17 0 20 5 8 13 17 26 27 38 5 6 4 15-2 21z m534-440c-5 6-14 8-21 4-7-5-15-10-22-14-7-5-10-14-6-21 7-12 18-6 21-5 8 5 16 10 24 15 6 5 8 14 4 21z m-64-39c-4 8-12 11-20 8-31-14-64-24-98-29-8-2-13-9-12-17 3-18 16-13 17-13 36 6 72 17 105 32 8 3 11 12 8 19z" horiz-adv-x="1000" />

<glyph glyph-name="angle-down" unicode="&#xf107;" d="M600 439q0-7-6-12l-260-261q-5-5-13-5t-12 5l-260 261q-6 5-6 12t6 13l28 28q5 6 12 6t13-6l219-219 220 219q5 6 13 6t12-6l28-28q6-5 6-13z" horiz-adv-x="642.9" />

<glyph glyph-name="whatsapp" unicode="&#xf232;" d="M550 307q7 0 54-25t50-30q1-2 1-8 0-18-9-42-9-22-40-37t-57-15q-32 0-106 35-55 25-95 66t-82 103q-41 60-40 108v5q2 50 41 88 14 12 29 12 4 0 10-1t11-1q11 0 15-3t8-16q5-11 19-49t14-41q0-12-19-33t-20-26q0-3 3-8 19-41 57-76 31-30 84-57 7-4 13-4 8 0 30 27t29 28z m-114-296q71 0 136 28t112 74 75 112 28 136-28 136-75 112-112 75-136 28-135-28-112-75-75-112-28-136q0-113 67-205l-44-130 135 43q88-58 192-58z m0 771q86 0 164-34t134-89 90-135 33-163-33-163-90-134-134-90-164-34q-108 0-203 53l-233-75 76 226q-60 99-60 217 0 86 33 163t90 135 134 89 163 34z" horiz-adv-x="857.1" />
</font>
</defs>
</svg>
